<svg xmlns="http://www.w3.org/2000/svg" xmlns:xlink="http://www.w3.org/1999/xlink" width="800" height="533" viewBox="0 0 800 533">
    <defs>
        <linearGradient id="prefix__a" x1="28.13%" x2="50%" y1="6.808%" y2="100%">
            <stop offset="0%" stop-color="#6999FA"/>
            <stop offset="100%" stop-color="#5488F1"/>
        </linearGradient>
        <linearGradient id="prefix__b" x1="50.561%" x2="50.561%" y1="103.386%" y2="31.821%">
            <stop offset="0%" stop-color="#E0F2FE"/>
            <stop offset="100%" stop-color="#D1DFFF"/>
        </linearGradient>
        <linearGradient id="prefix__c" x1="24.007%" x2="50%" y1="6.808%" y2="100%">
            <stop offset="0%" stop-color="#6999FA"/>
            <stop offset="100%" stop-color="#5488F1"/>
        </linearGradient>
        <linearGradient id="prefix__d" x1="50.561%" x2="50.561%" y1="103.386%" y2="31.821%">
            <stop offset="0%" stop-color="#E0F2FE"/>
            <stop offset="100%" stop-color="#D1DFFF"/>
        </linearGradient>
        <linearGradient id="prefix__e" x1="-7.902%" x2="50%" y1="10.593%" y2="95.619%">
            <stop offset="0%" stop-color="#6999FA"/>
            <stop offset="100%" stop-color="#5488F1"/>
        </linearGradient>
        <linearGradient id="prefix__f" x1="50.561%" x2="50.561%" y1="103.386%" y2="31.821%">
            <stop offset="0%" stop-color="#E0F2FE"/>
            <stop offset="100%" stop-color="#D1DFFF"/>
        </linearGradient>
        <linearGradient id="prefix__g" x1="-7.902%" x2="50%" y1="39.202%" y2="62.5%">
            <stop offset="0%" stop-color="#9BF"/>
            <stop offset="100%" stop-color="#85AEFF"/>
        </linearGradient>
        <linearGradient id="prefix__i" x1="-7.902%" x2="50%" y1="39.202%" y2="62.5%">
            <stop offset="0%" stop-color="#6999FA"/>
            <stop offset="100%" stop-color="#5488F1"/>
        </linearGradient>
        <linearGradient id="prefix__j" x1="-29.282%" x2="50%" y1="37.5%" y2="62.5%">
            <stop offset="0%" stop-color="#FFD611"/>
            <stop offset="100%" stop-color="#FFBE11"/>
        </linearGradient>
        <linearGradient id="prefix__k" x1="-29.282%" x2="50%" y1="37.5%" y2="62.5%">
            <stop offset="0%" stop-color="#5DFFD7"/>
            <stop offset="100%" stop-color="#32CD95"/>
        </linearGradient>
        <linearGradient id="prefix__l" x1="-25.811%" x2="116.88%" y1="41.637%" y2="67.581%">
            <stop offset="0%" stop-color="#FF5872"/>
            <stop offset="100%" stop-color="#FF374D"/>
        </linearGradient>
        <linearGradient id="prefix__m" x1="-29.282%" x2="50%" y1="0%" y2="100%">
            <stop offset="0%" stop-color="#5DFFD7"/>
            <stop offset="100%" stop-color="#32CD95"/>
        </linearGradient>
        <linearGradient id="prefix__o" x1="-29.282%" x2="50%" y1="37.5%" y2="62.5%">
            <stop offset="0%" stop-color="#FFD611"/>
            <stop offset="100%" stop-color="#FFBE11"/>
        </linearGradient>
        <linearGradient id="prefix__p" x1="-25.811%" x2="116.88%" y1="41.637%" y2="67.581%">
            <stop offset="0%" stop-color="#FF5872"/>
            <stop offset="100%" stop-color="#FF374D"/>
        </linearGradient>
        <linearGradient id="prefix__q" x1="-7.902%" x2="50%" y1="6.808%" y2="100%">
            <stop offset="0%" stop-color="#6999FA"/>
            <stop offset="100%" stop-color="#5488F1"/>
        </linearGradient>
        <path id="prefix__h" d="M97.27 0c53.721 0 97.27 43.55 97.27 97.27H0l.013-1.608C.872 42.682 44.087 0 97.27 0z"/>
        <path id="prefix__n" d="M127.047 0c70.166 0 127.047 56.88 127.047 127.047H0l.017-2.1C1.139 55.748 57.583 0 127.047 0z"/>
    </defs>
    <g fill="none" fill-rule="evenodd">
        <g>
            <path fill="url(#prefix__a)" d="M66.734 153.408h11.132v-29.566H66.734v29.566zm27.957-29.576h-11.13v-30.82H66.733V.623H39.713l.006-.01h38.147v92.388H94.69v30.83zm-68.716-30.82H.79l16.93-25.188c2.994-4.667 5.678-9.684 8.048-15.05h1.149c-.14.28-.331 3.257-.575 8.936-.174 4.035-.285 7.48-.336 10.336L11.92 93.002h14.055v.01z" transform="translate(206.452 182.63) translate(35.617)"/>
            <path fill="url(#prefix__b)" d="M102.351 153.417h-40.76v-29.575H.664v-30.31L64.204.625h38.147v92.387h16.826v30.83H102.35v29.576M61.383 52.775c-2.37 5.365-5.053 10.382-8.047 15.049L36.406 93.01h25.186V75.244c0-.968.01-2.034.03-3.198.05-2.855.162-6.3.335-10.336.245-5.679.435-8.657.576-8.935h-1.15" transform="translate(206.452 182.63)"/>
            <path fill="url(#prefix__c)" d="M384.665 153.412h-11.334l-4.494-23.244 10.925-2.117 4.903 25.36m.692-26.438L379.5 96.708l-16.519 3.195-17.546-90.707-26.524 5.122 37.46-7.248 17.536 90.707L379.5 96.7l10.927-2.117 5.856 30.274-10.926 2.117m-87.125-14.552l11.848-27.947c2.053-5.145 3.728-10.58 5.037-16.301l1.133-.22c-.085.303.293 3.268 1.131 8.884.597 4.002 1.142 7.417 1.634 10.223l-9.847 23.236 13.797-2.661-24.733 4.786" transform="translate(206.452 182.63)"/>
            <path fill="url(#prefix__d)" d="M373.33 153.412h-41.514l-2.996-15.504-48.9 9.45-10.925 2.115-5.751-29.75 44.74-103.289 10.927-2.116 26.524-5.122 17.546 90.707 16.519-3.195 5.857 30.265-5.595 1.078-10.925 2.117 4.494 23.244m-57.081-85.46l-1.133.22c-1.31 5.721-2.984 11.157-5.037 16.302l-11.848 27.947 24.733-4.786-3.374-17.442c-.178-.953-.377-1.991-.576-3.133-.492-2.806-1.037-6.221-1.634-10.223-.838-5.616-1.216-8.58-1.131-8.884" transform="translate(206.452 182.63)"/>
            <path fill="url(#prefix__e)" d="M254.8 72.584c-6.474-14.803-18.615-24.022-36.423-27.656-1.938-.398-3.834-.712-5.688-.943-15.714-1.99-28.672 1.76-38.875 11.251-11.418 10.602-19.84 29.216-25.288 55.845-3.331 16.31-4.263 30.42-2.786 42.33h38.927c-.494-6.954.88-18.331 4.106-34.106 3.488-17.065 6.945-28.588 10.37-34.58 1.991-3.478 4.243-5.773 6.758-6.882 1.812-.807 3.77-.997 5.855-.566 4.987 1.026 7.857 5.08 8.611 12.162.755 7.09-.565 18.928-3.949 35.51-2.546 12.435-5.102 21.916-7.658 28.463h42.677c1.98-6.127 3.72-12.874 5.218-20.238.995-4.87 1.78-9.543 2.346-14.016 2.44-19.065 1.036-34.59-4.202-46.574" transform="translate(206.452 182.63)"/>
            <path fill="url(#prefix__f)" d="M243.895 70.363C238.08 57.07 227.68 48.269 212.69 43.985c-1.687-.482-3.426-.912-5.228-1.277-18.29-3.741-33.144-.304-44.562 10.307-11.408 10.611-19.841 29.227-25.278 55.846-1.11 5.415-1.948 10.6-2.524 15.535-1.268 10.842-1.258 20.521.041 29.016h38.875c-.052-.25-.084-.502-.115-.764-.817-6.777.503-18.636 3.96-35.564 3.488-17.065 6.945-28.588 10.38-34.57 3.426-5.991 7.627-8.474 12.612-7.448 2.044.42 3.73 1.34 5.05 2.777 1.939 2.074 3.11 5.195 3.562 9.375.755 7.091-.565 18.928-3.949 35.511-2.85 13.912-5.71 24.136-8.58 30.683h42.877c2.263-6.703 4.242-14.184 5.94-22.448 5.227-25.603 4.609-45.799-1.855-60.601" transform="translate(206.452 182.63)"/>
        </g>
        <path fill="#F3FAFF" d="M125.056 231.266c10.679 0 19.956 6.002 24.64 14.817l.197-.002c7.22 0 13.072 5.852 13.072 13.072H68.486c0-10.83 8.78-19.608 19.609-19.608 5.063 0 9.679 1.919 13.158 5.07 4.9-8.007 13.728-13.35 23.803-13.35zM717.835 236.228c-8.918 0-16.737 4.705-21.111 11.767-2.544-1.749-5.625-2.772-8.945-2.772-8.736 0-15.819 7.083-15.819 15.82h70.689c0-13.705-11.11-24.815-24.814-24.815zM635.939 0c-10.17 0-19.086 5.364-24.075 13.418-2.901-1.994-6.415-3.16-10.201-3.16-9.963 0-18.04 8.077-18.04 18.04h80.614C664.237 12.67 651.567 0 635.939 0zM441.625 174.69c-8.736 0-15.819 7.082-15.819 15.819h31.638c0-8.737-7.082-15.82-15.819-15.82zM206.39 20.844c-8.737 0-15.82 7.082-15.82 15.819h31.638c0-8.737-7.082-15.82-15.818-15.82z"/>
        <g transform="translate(0 302.73)">
            <ellipse cx="401.489" cy="215.385" fill="#F5F8FA" rx="92.804" ry="14.888"/>
            <path fill="#F5F8FA" d="M337.897 107.196c13.739 0 15.382 5.333 3.669 11.91h-49.755l.354-.196c11.771-6.487 32.13-11.714 45.732-11.714zM765.688 133.002c13.74 0 15.382 5.333 3.67 11.911h-49.755l.354-.197c11.77-6.487 32.13-11.714 45.731-11.714zM647.574 165.757c13.74 0 15.382 5.332 3.67 11.91h-49.755l.354-.196c11.77-6.488 32.13-11.714 45.731-11.714zM530.452 75.434c13.74 0 15.383 5.333 3.67 11.91h-49.755l.354-.196c11.771-6.487 32.13-11.714 45.731-11.714z"/>
            <path fill="url(#prefix__g)" d="M494.293 57.568c16.445 0 29.776 13.332 29.776 29.777h-59.553l.004-.492c.263-16.219 13.492-29.285 29.773-29.285z"/>
            <path fill="#F5F8FA" d="M194.67 134.988c70.154 0 96.74 13.775 59.38 30.769H0l1.136-.509c37.965-16.759 124.082-30.26 193.534-30.26z"/>
            <g transform="translate(605.46 15.88)">
                <use fill="url(#prefix__i)" xlink:href="#prefix__h"/>
            </g>
            <path fill="url(#prefix__j)" d="M555.831 91.315c34.19 0 61.97 27.44 62.523 61.497l.008 1.034h-14.888l-.006-.788c-.421-25.949-21.588-46.855-47.637-46.855s-47.215 20.906-47.636 46.855l-.006.788H493.3l.009-1.034c.552-34.058 28.333-61.497 62.522-61.497z"/>
            <path fill="url(#prefix__k)" d="M244.169 32.754c34.19 0 61.97 27.44 62.522 61.497l.009 1.034H291.81l-.006-.787c-.42-25.95-21.587-46.855-47.636-46.855-26.05 0-47.216 20.906-47.637 46.855l-.006.787h-14.888l.008-1.034c.552-34.058 28.333-61.497 62.523-61.497z"/>
            <path fill="url(#prefix__l)" d="M618.362 144.913c18.09 0 32.755 14.665 32.755 32.754h-65.51l.005-.541c.29-17.84 14.841-32.213 32.75-32.213z"/>
            <path fill="url(#prefix__m)" d="M715.633 91.315c28.762 0 52.134 23.084 52.598 51.736l.007.87h-52.605V91.315z"/>
            <g transform="translate(0 38.71)">
                <use fill="url(#prefix__o)" xlink:href="#prefix__n"/>
            </g>
            <path fill="url(#prefix__p)" d="M316.625 94.293c13.705 0 24.814 11.11 24.814 24.814h-49.628l.004-.41c.219-13.516 11.243-24.404 24.81-24.404z"/>
            <path fill="#755601" fill-opacity=".073" d="M163.772 106.203c-32.562 0-59.02 26.133-59.546 58.569l-.008.985h59.554v-59.554z"/>
            <path fill="url(#prefix__q)" d="M40.695 90.323c50.47 0 91.48 40.505 92.295 90.78l.012 1.527H40.695V90.323z" transform="matrix(-1 0 0 1 173.697 0)"/>
            <path fill="#F5F8FA" d="M133.002 182.63L163.772 165.757 133.002 165.757z"/>
            <path fill="#FFBF11" d="M663.027 111.166L663.027 7.94 700.907 14.84z" transform="matrix(-1 0 0 1 1363.935 0)"/>
            <g>
                <path fill="#132240" d="M11.217 65.267S3.485 62.117.483 70.082c-3.036 8.055 9.223 12.026 9.223 12.026l1.51-16.84" transform="matrix(-1 0 0 1 460.546 0)"/>
                <path fill="#132240" d="M6.706 76.025s-4.128-1.682-5.73 2.57c-1.622 4.301 4.923 6.42 4.923 6.42l.807-8.99" transform="matrix(-1 0 0 1 460.546 0)"/>
                <path fill="#132240" d="M52.709 36.545l-14.6 58.426c-.85 3.4-3.29 6.176-6.56 7.433-4.02 1.545-10.218 2.393-18.593-.782-16.101-6.102-7.812-29.346-7.812-29.346l18.784-40.93 28.78 5.2" transform="matrix(-1 0 0 1 460.546 0)"/>
                <path fill="#132240" d="M52.709 36.545S54.112 19.51 36.61 18.413C19.109 17.317 22.8 29.441 16.68 35.87c-6.12 6.428-12.783 18.298 3.552 20.272L52.71 36.545" transform="matrix(-1 0 0 1 460.546 0)"/>
                <path fill="#FFCA11" d="M11.237 188.663L19.713 168.039 35.161 174.618 26.282 193.577 11.237 188.663" transform="matrix(-1 0 0 1 460.546 0)"/>
                <path fill="#132240" d="M11.562 186.183L5.56 199.917l34.575 15.112s3.752-5.373-3.06-9.625c-6.811-4.252-8.694-4.517-9.381-7.415-.39-1.648.105-3.419.554-4.555.272-.69-.041-1.469-.72-1.765l-14.165-6.192c-.692-.302-1.499.014-1.8.706" transform="matrix(-1 0 0 1 460.546 0)"/>
                <path fill="#132240" d="M3.261 201.649L40.583 217.962 41.587 215.664 4.265 199.35 3.261 201.649" transform="matrix(-1 0 0 1 460.546 0)"/>
                <path fill="#FFFFFE" d="M24.691 195.72c-.13.299.006.647.305.777.3.131.647-.005.778-.304.131-.3-.006-.647-.304-.779-.3-.13-.648.006-.779.305M25.303 198.843c-.13.298.006.647.305.778.3.13.648-.006.778-.305.131-.3-.005-.647-.305-.778-.299-.13-.647.006-.778.305M27.765 201.679c-.13.299.005.647.305.777.299.132.647-.005.778-.304.13-.299-.006-.647-.305-.778-.3-.131-.647.006-.778.305M31.155 203.806c-.13.299.007.647.305.777.3.131.648-.005.778-.305.131-.298-.005-.646-.304-.777-.3-.13-.648.006-.779.305" transform="matrix(-1 0 0 1 460.546 0)"/>
                <path stroke="#FFFFFE" stroke-width=".64" d="M5.56 199.917l34.575 15.112" transform="matrix(-1 0 0 1 460.546 0)"/>
                <path fill="#132240" d="M3.616 200.835L17.645 206.893 16.935 208.548 2.926 202.408 3.616 200.835" transform="matrix(-1 0 0 1 460.546 0)"/>
                <path fill="#0A1325" d="M38.14 91.509l-8.74 46.37-18.895 39.647 23.25 8.674 19.586-38.09c1.06-2.346 1.941-4.766 2.633-7.238l6.275-22.433-24.11-26.93" transform="matrix(-1 0 0 1 460.546 0)"/>
                <path fill="#FFCA11" d="M78.237 202.007L72.621 180.428 88.923 176.405 93.216 196.895 78.237 202.007" transform="matrix(-1 0 0 1 460.546 0)"/>
                <path fill="#132240" d="M77.008 199.829l3.454 14.585 36.718-8.695s-.23-6.549-8.229-5.855c-8 .693-9.664 1.614-11.955-.29-1.302-1.083-1.97-2.797-2.294-3.975-.197-.714-.915-1.149-1.636-.977l-15.043 3.561c-.735.174-1.19.911-1.015 1.646M79.664 217.179L119.3 207.794 118.722 205.354 79.086 214.74 79.664 217.179" transform="matrix(-1 0 0 1 460.546 0)"/>
                <path fill="#FFFFFE" d="M93.233 199.563c.075.318.394.515.71.44.318-.076.515-.394.44-.712-.075-.317-.394-.514-.711-.439-.318.075-.515.394-.439.711M95.599 201.692c.075.317.393.514.71.44.318-.076.515-.394.44-.712-.076-.318-.394-.515-.712-.44-.317.077-.513.394-.438.712M99.27 202.48c.076.318.394.514.711.439.318-.075.514-.393.439-.71-.075-.319-.393-.516-.71-.44-.319.076-.515.394-.44.711M103.259 202.143c.075.318.393.514.71.44.318-.076.515-.395.44-.712-.076-.318-.394-.514-.711-.44-.318.076-.515.394-.44.712" transform="matrix(-1 0 0 1 460.546 0)"/>
                <path stroke="#FFFFFE" stroke-width=".64" d="M80.462 214.414l36.718-8.695" transform="matrix(-1 0 0 1 460.546 0)"/>
                <path fill="#132240" d="M79.46 216.316L94.314 212.729 94.739 214.478 79.853 217.988 79.46 216.316M36.414 82.855s-5.009 10.736 5.093 23.203l17.223 35.324 11.757 51.698 25.954-5.914-10.458-49.702c-.35-2.179-.91-4.32-1.671-6.398L66.709 87.529l-30.295-4.674" transform="matrix(-1 0 0 1 460.546 0)"/>
                <path fill="#0A1325" d="M67.217 81.798l-.508 5.73s-21.208-.172-30.295-4.673l1.316-3.577s12.948 3.577 29.487 2.52" transform="matrix(-1 0 0 1 460.546 0)"/>
                <path fill="#FFD0D5" d="M70.307 25.323L61.008 48.376 51.517 35.364 59.409 18.888 70.307 25.323" transform="matrix(-1 0 0 1 460.546 0)"/>
                <path fill="#F5B2B9" d="M63.608 22.167s-5.012 9.003 1.397 16.302l1.824-4.52-3.22-11.782" transform="matrix(-1 0 0 1 460.546 0)"/>
                <path fill="#FFD0D5" d="M79.465 18.27l-3.53 12.063c-.872 2.978-3.993 4.687-6.973 3.815-4.28-1.252-6.257-4.71-6.307-9.17l-1.099-10.896c-.025-2.325 2.203-4.014 4.435-3.362l11.122 3.255c1.836.537 2.888 2.46 2.352 4.295" transform="matrix(-1 0 0 1 460.546 0)"/>
                <path fill="#FFD0D5" d="M77.899 22.312l.832 5.49c.05.744-.733 1.257-1.397.915L74 27.402l3.9-5.09" transform="matrix(-1 0 0 1 460.546 0)"/>
                <path fill="#132240" d="M62.194 21.212s-2.3 3.563-5.53 3.409c0 0-.715-4.907-4.022-9.16-3.307-4.252.241-10.768 6.394-10.469 0 0 1.097-6.692 9.873-4.58 8.237 1.983 7.711 8.477 14.256 10.486 0 0 8.792 2.386 3.347 9.377-4.422 5.678-13.757-2.162-15.534-5.97-1.284-2.754-5.137-2.583-5.09-.176.047 2.407 3.367 5.009-1.918 7.034l-1.776.05" transform="matrix(-1 0 0 1 460.546 0)"/>
                <path fill="#FFD0D5" d="M58.181 18.53c-.484 1.65.463 3.381 2.115 3.864 1.651.483 3.381-.464 3.865-2.115.483-1.652-.464-3.382-2.115-3.865-1.652-.484-3.382.463-3.865 2.115" transform="matrix(-1 0 0 1 460.546 0)"/>
                <path fill="#132240" d="M76.646 29.091c.124.534.119 1.305-.807 1.567l-2.655-1.166c-.204-.09-.433-.095-.639-.013-.46.182-1.169.702-1.163 2.171.007 2.178 2.315 1.311 3.96.026 0 0 .328 2.142-.893 3.732-1.594 2.078-7.74 1.078-10.652-4.406-2.527-4.757.635-12.897.635-12.897l1.613.749s-2.374 8.445 3.18 11.078c0 0 2.32-4.179 6.822-1.635.302.17.521.456.6.794M76.488 22.94c-.177.373-.621.531-.994.355-.372-.178-.53-.623-.353-.995.176-.372.621-.53.993-.354.373.177.531.622.354.994M77.305 19.897c-.047.32-1.143.421-2.447.227-1.304-.194-2.323-.61-2.275-.93.047-.318 1.143-.42 2.447-.226 1.304.194 2.323.61 2.275.93" transform="matrix(-1 0 0 1 460.546 0)"/>
                <path fill="#FFCA11" d="M67.217 81.798c2.846-8.499-4.15-38.006-4.15-38.006-3.568.74-10.38-8.939-10.38-8.939-13.148 13.738-15.724 46.51-15.724 46.51l30.254.435" transform="matrix(-1 0 0 1 460.546 0)"/>
                <path fill="#132240" d="M38.854 40.184s15.86-10.888 18.93.866c1.73 6.624-8.81 23.868-18.751 22.79l2.801 7.561s18.972-15.646 18.93-27.876c-.07-19.89-25.327-6.144-25.327-6.144l3.417 2.803M84.698 60.586l17.344-17.148c.464-.46 1.209-.466 1.681-.015l.27.258c.491.469.499 1.252.015 1.729L86.636 62.597c-.506.5-1.333.456-1.783-.095l-.242-.296c-.393-.481-.356-1.183.087-1.62" transform="matrix(-1 0 0 1 460.546 0)"/>
                <path fill="#FFD0D5" d="M70.66 66.251l8.69-1.778c.335-2.303 4.747-6.332 6.507-7.857.693-.602 1.805-.157 1.842.76.014.345-.049.774-.229 1.31 0 0 6.408-1.141 4.96 3.132 0 0 2.495.7 1.23 3.376 0 0 1.965.736.669 3.27 0 0 1.164 1.765-1.287 3.943-2.45 2.177-10.756 1.677-10.756 1.677l-10.425 3.21-1.201-11.043" transform="matrix(-1 0 0 1 460.546 0)"/>
                <path fill="#FFCA11" d="M47.46 68.311c0-.588 8.106-16.07 8.106-16.07s6.467-11.648-1.568-16.014-18.813 16.042-18.813 16.042-9.87 16.239-5.166 29.172C34.722 94.375 78 79.095 78 79.095l-2.547-15.09-27.994 4.306" transform="matrix(-1 0 0 1 460.546 0)"/>
            </g>
        </g>
    </g>
</svg>
